
<svg xmlns="http://www.w3.org/2000/svg" version="1.1" xmlns:xlink="http://www.w3.org/1999/xlink" preserveAspectRatio="none" x="0px" y="0px" width="242px" height="242px" viewBox="0 0 242 242">
<defs>
<g id="Layer0_0_FILL">
<path fill="#000000" stroke="none" d="
M 242.6 121.3
Q 242.6 71.05 207.1 35.55 171.55 0 121.3 0 71.05 0 35.55 35.55 0 71.05 0 121.3 0 171.55 35.55 207.1 71.05 242.6 121.3 242.6 171.55 242.6 207.1 207.1 242.6 171.55 242.6 121.3
M 177.3 60.45
Q 177.2 57.35 175.2 55 170.35 49.2 162.4 50.15 160.45 50.3 158.6 51.35 157.2 52.15 155.85 53.05 154.6 51 153.3 49 147.85 40.75 143.45 31.95 142.35 29.8 141.4 27.55 139.9 23.95 136.5 22.9 136.45 22.9 136.4 22.9 136.05 22.8 135.75 22.75 126.2 20.75 116.35 21.15 109.85 21.8 102.85 21.55 102.3 21.5 101.75 21.65 101.35 21.5 100.95 21.4 100.6 21.45 100.3 21.5 99.2 21.65 98.7 22.6 94.4 30.1 90.85 38.05 89.85 40.25 88.85 42.45 86.2 48.05 83.7 53.75 79.85 51.3 74.8 51.2 74 51.3 73.05 51.35 65.15 51.8 60.9 58.15 57.15 63.8 61.3 69.3 55.8 71.05 52.15 75.5 49 79.4 49.15 84.4 49.4 92.65 57.15 96.25 57 96.7 56.9 97.2 55.6 104.15 60.95 109.15 63.05 111.1 65.8 111.8 74.85 114.1 80.4 107.05 80.85 108.45 81.4 109.8 80.05 110.3 78.7 111 67.75 116.6 63.65 128.05 61.8 133.25 62.05 138.45 61.65 138.9 61.3 139.4 54.35 148.45 50.2 159 46.5 168.5 45 178.45 43.8 186.75 43.2 195.15 42.95 199.1 42.9 203.15 42.05 202.3 41.2 201.45 8 168.25 8 121.3 8 74.35 41.2 41.2 74.35 8 121.3 8 168.25 8 201.45 41.2 234.6 74.35 234.6 121.3 234.6 166.45 203.95 198.9 203.85 197.4 203.75 195.95 203.05 186.2 201 176.65 198.9 167.1 195.65 157.75 192.4 148.45 186.45 140.5 183.05 136 179 132.25 179.1 124.85 174.85 118.8 169.7 111.4 161.25 109.1 161.5 108.35 161.7 107.6 161.8 107.6 161.9 107.65 163.5 108.75 165.4 109.25 169.45 110.4 173.35 109.05 181.55 106.2 183.35 97.65 184.65 91.45 180.95 86.35 186.3 81.3 184.2 74.2 182.45 68.3 176.75 65.9 177.35 63.2 177.3 60.45
M 171.6 73
Q 173 72.8 174.3 73.2 178.3 74.55 177.85 78.85 177.5 79.85 176.75 80.45 174.65 82.3 171.9 83.05 169.8 83.65 169.8 85.8 169.9 90.25 174.9 90.1 176.45 91.5 176.55 93.65 176.7 96 175.65 98.15 175.05 99.4 174.5 100.6 169.95 104.5 164.65 101.3 163.85 100.8 163 100.5 164.15 92.6 164.05 84.55 163.95 74.75 160.85 65.45 160.2 63.55 160.05 61.6
L 160.05 61.55
Q 160.25 60.95 160 60.4 159.95 60.3 159.9 60.2 159.75 59.5 159.55 58.9 163 56.35 167.55 57.65 168.15 57.8 168.55 58.2 171.95 61.55 169 65.7 166.2 66.8 166.6 69.6 167.2 73.65 171.6 73
M 165.35 118.6
Q 167.3 120.05 168.6 122 169.85 123.85 170.65 125.9 163.95 121.65 156.2 120.1 157.55 117.8 158.7 115.45 160.55 116.45 162.65 117.15 164.1 117.65 165.35 118.6
M 171.95 135.7
Q 171.55 139.2 171.05 142.7 169.55 152.45 166.4 162 164.8 166.8 162.75 171.45 162.35 172.35 162.2 173.25 160.45 173 158.5 173.1 155.95 173.6 153.55 174.95 144.1 180.05 144.55 190.65 144.65 193.15 146 195.3 149.55 200.95 155.85 202.65 165.1 205.1 171.2 197.8 176.8 191.1 173.65 182.8 172 178.55 169.15 176.15 169.45 175.2 169.5 173.95 170.35 172.45 170.9 170.8 174.05 161.5 176.35 152.05 177.65 146.7 178.3 141.3 183.35 147.05 186.6 154.1 190.7 163.05 193 172.6 195.3 182.1 196.35 191.8 197.1 198.55 197.3 205.4 180.15 221.05 159.55 228.35 143.85 233.85 126.1 234.5 126 233.2 125.95 231.95 125.95 231.75 126 231.6
L 125.95 231.6
Q 125.6 226.9 125.2 222.2 125.15 221.85 125.15 221.45 124.9 212.95 124.85 204.45 124.85 194.65 123.85 185 123.45 181.3 123.95 177.7 124.15 176 123.8 174.75 128.5 171.25 132.6 166.95 135.9 163.5 139.3 160.2 146.3 153.45 153.1 146.45 159.85 139.45 166.5 132.4 166.8 132.1 167.05 131.75 169.6 133.3 172 135.25 171.95 135.45 171.95 135.7
M 166.35 184.05
Q 169.6 189.1 165.75 193.65 164.35 195.3 162.4 195.75 154.65 197.45 151.25 189.9 151.25 189.15 151.45 188.45 151.75 187.2 152.1 186 152.35 185.2 152.65 184.45 153.55 183.4 154.6 182.4 156.4 180.7 158.95 180.2 161.8 179.75 164.05 181.5 165.4 182.55 166.35 184.05
M 134.45 29.75
Q 136 33.45 138 36.95 140.4 41.15 142.9 45.35 145.85 50.4 149 55.4 147.75 55.45 146.55 55.6 136.9 56.6 127.25 57.55 117.7 58.55 108.05 59.05 98.4 59.55 88.75 59.85 88.6 59.85 88.45 59.9 92.2 52.55 95.4 45.05 99 36.6 103.05 28.35 117.7 27.6 132.25 29.05 133.3 29.6 134.45 29.75
M 86.5 66.9
Q 92.1 67.2 97.75 66.8 107.45 66.05 117.15 65.4 126.9 64.75 136.55 63.6 144.6 62.7 152.75 62.15 153.1 64.6 153.9 67.05 155.5 71.7 156.15 76.55 157.35 85.15 156.9 93.85 150.75 91.1 143.95 90.1 134.25 88.65 124.4 88.9 122.45 89 120.4 89.1 111.55 89.55 102.9 91.35 93.5 93.35 85.2 98 83.85 91.5 84 84.8 84.15 75.65 86.5 66.9
M 117.05 96.35
Q 126.95 95.45 136.85 96.1 146.6 96.7 155.45 100.75 155.75 100.9 156.05 101 155.75 102.15 155.45 103.3 153.15 111.65 148.95 119.25 146.35 123.9 142.1 127.15 134.1 133.25 124.1 134.55 117 135.5 110.5 132.95 101.3 129.25 95.45 121.35 89.8 113.7 86.9 104.65 92.35 101.9 98.2 100.1 107.45 97.25 117.05 96.35
M 66.15 62.4
Q 66.5 61.95 66.9 61.55 72.8 56.15 80.4 59.7 80.7 59.85 81 60 80.5 61.3 80.1 62.65 80 62.9 79.95 63.2 79.4 64.2 79.15 65.4 77.15 74.95 76.95 84.8 76.85 91.7 78.15 98.4 77.85 98.6 77.65 98.85 75.75 101.1 73.75 103.35 70.65 106.9 66.55 104.4 63.05 102.3 63.85 98.6 65.25 97.55 66.65 96.65 70.05 94.45 67.55 91.35 66.9 90.55 65.9 90.6 59.85 91.1 56.4 86.7 54.85 81.1 59.8 77.7 61.65 76.45 63.9 76.25 66.45 76.1 69 76.1 70.05 76.1 70.65 75.2 73.05 71.55 69.45 68.45 66.5 65.9 66.15 62.4
M 76.35 134.15
Q 76.45 134.3 76.6 134.45 81.9 140 87.2 145.5 94.05 152.6 100.8 159.8 107.5 167 114.7 173.65 115.65 174.5 116.55 175.3 116.75 175.45 116.9 175.6 116.7 184.5 117.3 193.5 117.9 203.25 118 213.15 118.05 216.05 118.05 218.9 117.9 219.4 118.05 220 118.05 220.05 118.1 220.15 118.1 221.45 118.1 222.75 117.85 224.7 117.95 226.75 118 227.6 118.05 228.45 118.2 231.55 118.4 234.6 101.2 234.2 85.9 229.3 66.55 223.1 50.25 209.65 50.2 208.8 50.2 207.9 50.05 198.1 50.85 188.4 51.6 178.7 54.1 169.25 56.55 159.7 61.65 151.2 62.75 149.35 63.95 147.6 66.1 154.5 69.55 160.9 72.85 166.95 76.55 172.85 76.85 173.75 77.35 174.6 70.75 179.45 69.65 188.1 68.9 194.05 69.7 200.05 71 209.3 73.95 218.2 74.2 218.95 74.95 219.2 78.55 220.3 82.55 219.25 84.5 218.7 86.4 218 90.45 216.45 88.35 212.75 87.9 211.95 86.95 211.85 83.05 211.55 79.45 212.3 79 210 78.25 207.75 75.5 199.2 76.35 190.15 76.95 183.95 81.45 179.65 87.85 178.35 92.3 183.45 97.35 189.15 100 196.35 101.9 201.65 103.85 206.9 102.05 208.1 99.95 208.7 99.05 208.95 98.3 209.45 94.8 211.85 97.4 215.2 98.05 216.05 99.1 215.95 103.2 215.65 107 213.65 109.55 212.3 111.3 210.2 112.05 209.3 111.65 208.2 108.4 199 104.6 189.95 102.65 185.35 99.7 181.25 93.75 172.85 83.65 172.15 82.95 169.15 81.05 166.55 75.85 159.25 72.4 150.95 70.35 146.05 69.2 140.95 71.45 138.4 74 136.1 75.15 135.05 76.35 134.15
M 70.6 129.75
Q 70.9 129 71.25 128.3 75.45 119.85 84.25 116.4 85.3 118.5 86.5 120.55 83.25 121.55 80.15 123.25 75 126.1 70.6 129.75
M 154.55 126.85
Q 156.8 127.2 158.95 127.95 159.75 128.25 160.5 128.55 157.3 131.45 154.3 134.65 147.6 141.85 140.65 148.8 137.1 152.3 133.7 155.95 127.15 162.85 119.95 169.05 118.55 167.3 116.9 165.8 109.7 159.25 103.15 152 96.55 144.75 89.65 137.8 87.05 135.2 84.9 132.35 83.9 131 82.7 130.05 86.55 128 90.8 126.85 95.15 132.25 101.05 136.15 109.45 141.7 119.5 141.75 129.4 141.75 138.5 137.85 145.1 135 149.6 129.55 150.65 128.3 151.65 127 152.85 127.25 154.55 126.85
M 135.65 83
Q 136.45 82.5 136.45 81.6 136.75 75.3 142.9 75.35 144.5 76.75 145.05 78.9 145.45 80.65 145.8 82.4 146.55 86.1 150.35 85.2 151.65 84.85 151.95 83.65 153.1 79.15 151.15 74.6 148.5 68.45 141.8 68.15 141.05 68.25 140.15 68.4 131.75 69.9 130.15 78 129.75 79.95 130.6 81.65 132.3 85.1 135.65 83
M 90.6 82.9
Q 91.65 86.45 95.25 85.15 95.8 84.95 96.05 84.4 97.2 81.5 98.6 78.7 100.15 77.85 101.85 78 102 78.05 102.1 78.1 102.95 78.6 103.55 79.4 104.7 81.1 105.5 83.05 106.05 84.4 107.45 84.5 112.1 84.9 111.85 80.3 111.8 79.25 111.35 78.3 108.1 71.2 100.35 70.9 93.3 71.55 90.8 78 89.9 80.4 90.6 82.9 Z"/>

<path fill="#FFFFFF" stroke="none" d="
M 158.95 127.95
Q 156.8 127.2 154.55 126.85 152.85 127.25 151.65 127 150.65 128.3 149.6 129.55 145.1 135 138.5 137.85 129.4 141.75 119.5 141.75 109.45 141.7 101.05 136.15 95.15 132.25 90.8 126.85 86.55 128 82.7 130.05 83.9 131 84.9 132.35 87.05 135.2 89.65 137.8 96.55 144.75 103.15 152 109.7 159.25 116.9 165.8 118.55 167.3 119.95 169.05 127.15 162.85 133.7 155.95 137.1 152.3 140.65 148.8 147.6 141.85 154.3 134.65 157.3 131.45 160.5 128.55 159.75 128.25 158.95 127.95
M 76.6 134.45
Q 76.45 134.3 76.35 134.15 75.15 135.05 74 136.1 71.45 138.4 69.2 140.95 70.35 146.05 72.4 150.95 75.85 159.25 81.05 166.55 82.95 169.15 83.65 172.15 93.75 172.85 99.7 181.25 102.65 185.35 104.6 189.95 108.4 199 111.65 208.2 112.05 209.3 111.3 210.2 109.55 212.3 107 213.65 103.2 215.65 99.1 215.95 98.05 216.05 97.4 215.2 94.8 211.85 98.3 209.45 99.05 208.95 99.95 208.7 102.05 208.1 103.85 206.9 101.9 201.65 100 196.35 97.35 189.15 92.3 183.45 87.85 178.35 81.45 179.65 76.95 183.95 76.35 190.15 75.5 199.2 78.25 207.75 79 210 79.45 212.3 83.05 211.55 86.95 211.85 87.9 211.95 88.35 212.75 90.45 216.45 86.4 218 84.5 218.7 82.55 219.25 78.55 220.3 74.95 219.2 74.2 218.95 73.95 218.2 71 209.3 69.7 200.05 68.9 194.05 69.65 188.1 70.75 179.45 77.35 174.6 76.85 173.75 76.55 172.85 72.85 166.95 69.55 160.9 66.1 154.5 63.95 147.6 62.75 149.35 61.65 151.2 56.55 159.7 54.1 169.25 51.6 178.7 50.85 188.4 50.05 198.1 50.2 207.9 50.2 208.8 50.25 209.65 66.55 223.1 85.9 229.3 101.2 234.2 118.4 234.6 118.2 231.55 118.05 228.45 118 227.6 117.95 226.75 117.85 224.7 118.1 222.75 118.1 221.45 118.1 220.15 118.05 220.05 118.05 220 117.9 219.4 118.05 218.9 118.05 216.05 118 213.15 117.9 203.25 117.3 193.5 116.7 184.5 116.9 175.6 116.75 175.45 116.55 175.3 115.65 174.5 114.7 173.65 107.5 167 100.8 159.8 94.05 152.6 87.2 145.5 81.9 140 76.6 134.45
M 136.85 96.1
Q 126.95 95.45 117.05 96.35 107.45 97.25 98.2 100.1 92.35 101.9 86.9 104.65 89.8 113.7 95.45 121.35 101.3 129.25 110.5 132.95 117 135.5 124.1 134.55 134.1 133.25 142.1 127.15 146.35 123.9 148.95 119.25 153.15 111.65 155.45 103.3 155.75 102.15 156.05 101 155.75 100.9 155.45 100.75 146.6 96.7 136.85 96.1
M 138 36.95
Q 136 33.45 134.45 29.75 133.3 29.6 132.25 29.05 117.7 27.6 103.05 28.35 99 36.6 95.4 45.05 92.2 52.55 88.45 59.9 88.6 59.85 88.75 59.85 98.4 59.55 108.05 59.05 117.7 58.55 127.25 57.55 136.9 56.6 146.55 55.6 147.75 55.45 149 55.4 145.85 50.4 142.9 45.35 140.4 41.15 138 36.95
M 127.25 38.8
Q 132.25 40.15 129.7 44.55 129.1 45.6 127.85 45.7 125.45 45.9 123.1 46.1 122.95 50 122.25 53.8 122.1 54.55 121.45 54.85 117.5 56.8 116.3 52.7 116 51.6 115.95 50.35 115.95 48.5 115.95 46.7 112.9 47 109.85 47.3 109.1 47.35 108.6 46.75 105.65 43.35 109.65 41.1 110.5 40.6 111.5 40.45 113.8 40.05 116.1 39.8 116.15 37.55 116.3 35.35 116.35 34.45 117.2 33.85 118.15 33.15 119.25 33.15 123.4 34.45 123.2 39.05 125.2 38.9 127.25 38.8
M 171.05 142.7
Q 171.55 139.2 171.95 135.7 171.95 135.45 172 135.25 169.6 133.3 167.05 131.75 166.8 132.1 166.5 132.4 159.85 139.45 153.1 146.45 146.3 153.45 139.3 160.2 135.9 163.5 132.6 166.95 128.5 171.25 123.8 174.75 124.15 176 123.95 177.7 123.45 181.3 123.85 185 124.85 194.65 124.85 204.45 124.9 212.95 125.15 221.45 125.15 221.85 125.2 222.2 125.6 226.9 125.95 231.6
L 126 231.6
Q 125.95 231.75 125.95 231.95 126 233.2 126.1 234.5 143.85 233.85 159.55 228.35 180.15 221.05 197.3 205.4 197.1 198.55 196.35 191.8 195.3 182.1 193 172.6 190.7 163.05 186.6 154.1 183.35 147.05 178.3 141.3 177.65 146.7 176.35 152.05 174.05 161.5 170.9 170.8 170.35 172.45 169.5 173.95 169.45 175.2 169.15 176.15 172 178.55 173.65 182.8 176.8 191.1 171.2 197.8 165.1 205.1 155.85 202.65 149.55 200.95 146 195.3 144.65 193.15 144.55 190.65 144.1 180.05 153.55 174.95 155.95 173.6 158.5 173.1 160.45 173 162.2 173.25 162.35 172.35 162.75 171.45 164.8 166.8 166.4 162 169.55 152.45 171.05 142.7 Z"/>

<path fill="#2CBAD8" stroke="none" d="
M 71.25 128.3
Q 70.9 129 70.6 129.75 75 126.1 80.15 123.25 83.25 121.55 86.5 120.55 85.3 118.5 84.25 116.4 75.45 119.85 71.25 128.3
M 168.6 122
Q 167.3 120.05 165.35 118.6 164.1 117.65 162.65 117.15 160.55 116.45 158.7 115.45 157.55 117.8 156.2 120.1 163.95 121.65 170.65 125.9 169.85 123.85 168.6 122
M 175.2 55
Q 177.2 57.35 177.3 60.45 177.35 63.2 176.75 65.9 182.45 68.3 184.2 74.2 186.3 81.3 180.95 86.35 184.65 91.45 183.35 97.65 181.55 106.2 173.35 109.05 169.45 110.4 165.4 109.25 163.5 108.75 161.9 107.65 161.8 107.6 161.7 107.6 161.5 108.35 161.25 109.1 169.7 111.4 174.85 118.8 179.1 124.85 179 132.25 183.05 136 186.45 140.5 192.4 148.45 195.65 157.75 198.9 167.1 201 176.65 203.05 186.2 203.75 195.95 203.85 197.4 203.95 198.9 234.6 166.45 234.6 121.3 234.6 74.35 201.45 41.2 168.25 8 121.3 8 74.35 8 41.2 41.2 8 74.35 8 121.3 8 168.25 41.2 201.45 42.05 202.3 42.9 203.15 42.95 199.1 43.2 195.15 43.8 186.75 45 178.45 46.5 168.5 50.2 159 54.35 148.45 61.3 139.4 61.65 138.9 62.05 138.45 61.8 133.25 63.65 128.05 67.75 116.6 78.7 111 80.05 110.3 81.4 109.8 80.85 108.45 80.4 107.05 74.85 114.1 65.8 111.8 63.05 111.1 60.95 109.15 55.6 104.15 56.9 97.2 57 96.7 57.15 96.25 49.4 92.65 49.15 84.4 49 79.4 52.15 75.5 55.8 71.05 61.3 69.3 57.15 63.8 60.9 58.15 65.15 51.8 73.05 51.35 74 51.3 74.8 51.2 79.85 51.3 83.7 53.75 86.2 48.05 88.85 42.45 89.85 40.25 90.85 38.05 94.4 30.1 98.7 22.6 99.2 21.65 100.3 21.5 100.6 21.45 100.95 21.4 101.35 21.5 101.75 21.65 102.3 21.5 102.85 21.55 109.85 21.8 116.35 21.15 126.2 20.75 135.75 22.75 136.05 22.8 136.4 22.9 136.45 22.9 136.5 22.9 139.9 23.95 141.4 27.55 142.35 29.8 143.45 31.95 147.85 40.75 153.3 49 154.6 51 155.85 53.05 157.2 52.15 158.6 51.35 160.45 50.3 162.4 50.15 170.35 49.2 175.2 55 Z"/>

<path fill="#C5C5C5" stroke="none" d="
M 66.9 61.55
Q 66.5 61.95 66.15 62.4 66.5 65.9 69.45 68.45 73.05 71.55 70.65 75.2 70.05 76.1 69 76.1 66.45 76.1 63.9 76.25 61.65 76.45 59.8 77.7 54.85 81.1 56.4 86.7 59.85 91.1 65.9 90.6 66.9 90.55 67.55 91.35 70.05 94.45 66.65 96.65 65.25 97.55 63.85 98.6 63.05 102.3 66.55 104.4 70.65 106.9 73.75 103.35 75.75 101.1 77.65 98.85 77.85 98.6 78.15 98.4 76.85 91.7 76.95 84.8 77.15 74.95 79.15 65.4 79.4 64.2 79.95 63.2 80 62.9 80.1 62.65 80.5 61.3 81 60 80.7 59.85 80.4 59.7 72.8 56.15 66.9 61.55
M 165.75 193.65
Q 169.6 189.1 166.35 184.05 165.4 182.55 164.05 181.5 161.8 179.75 158.95 180.2 156.4 180.7 154.6 182.4 153.55 183.4 152.65 184.45 152.35 185.2 152.1 186 151.75 187.2 151.45 188.45 151.25 189.15 151.25 189.9 154.65 197.45 162.4 195.75 164.35 195.3 165.75 193.65
M 174.3 73.2
Q 173 72.8 171.6 73 167.2 73.65 166.6 69.6 166.2 66.8 169 65.7 171.95 61.55 168.55 58.2 168.15 57.8 167.55 57.65 163 56.35 159.55 58.9 159.75 59.5 159.9 60.2 159.95 60.3 160 60.4 160.25 60.95 160.05 61.55
L 160.05 61.6
Q 160.2 63.55 160.85 65.45 163.95 74.75 164.05 84.55 164.15 92.6 163 100.5 163.85 100.8 164.65 101.3 169.95 104.5 174.5 100.6 175.05 99.4 175.65 98.15 176.7 96 176.55 93.65 176.45 91.5 174.9 90.1 169.9 90.25 169.8 85.8 169.8 83.65 171.9 83.05 174.65 82.3 176.75 80.45 177.5 79.85 177.85 78.85 178.3 74.55 174.3 73.2 Z"/>

<path fill="#F6C2A8" stroke="none" d="
M 97.75 66.8
Q 92.1 67.2 86.5 66.9 84.15 75.65 84 84.8 83.85 91.5 85.2 98 93.5 93.35 102.9 91.35 111.55 89.55 120.4 89.1 122.45 89 124.4 88.9 134.25 88.65 143.95 90.1 150.75 91.1 156.9 93.85 157.35 85.15 156.15 76.55 155.5 71.7 153.9 67.05 153.1 64.6 152.75 62.15 144.6 62.7 136.55 63.6 126.9 64.75 117.15 65.4 107.45 66.05 97.75 66.8
M 95.25 85.15
Q 91.65 86.45 90.6 82.9 89.9 80.4 90.8 78 93.3 71.55 100.35 70.9 108.1 71.2 111.35 78.3 111.8 79.25 111.85 80.3 112.1 84.9 107.45 84.5 106.05 84.4 105.5 83.05 104.7 81.1 103.55 79.4 102.95 78.6 102.1 78.1 102 78.05 101.85 78 100.15 77.85 98.6 78.7 97.2 81.5 96.05 84.4 95.8 84.95 95.25 85.15
M 136.45 81.6
Q 136.45 82.5 135.65 83 132.3 85.1 130.6 81.65 129.75 79.95 130.15 78 131.75 69.9 140.15 68.4 141.05 68.25 141.8 68.15 148.5 68.45 151.15 74.6 153.1 79.15 151.95 83.65 151.65 84.85 150.35 85.2 146.55 86.1 145.8 82.4 145.45 80.65 145.05 78.9 144.5 76.75 142.9 75.35 136.75 75.3 136.45 81.6 Z"/>

<path fill="#E81616" stroke="none" d="
M 129.7 44.55
Q 132.25 40.15 127.25 38.8 125.2 38.9 123.2 39.05 123.4 34.45 119.25 33.15 118.15 33.15 117.2 33.85 116.35 34.45 116.3 35.35 116.15 37.55 116.1 39.8 113.8 40.05 111.5 40.45 110.5 40.6 109.65 41.1 105.65 43.35 108.6 46.75 109.1 47.35 109.85 47.3 112.9 47 115.95 46.7 115.95 48.5 115.95 50.35 116 51.6 116.3 52.7 117.5 56.8 121.45 54.85 122.1 54.55 122.25 53.8 122.95 50 123.1 46.1 125.45 45.9 127.85 45.7 129.1 45.6 129.7 44.55 Z"/>
</g>
</defs>

<g transform="matrix( 1, 0, 0, 1, 0,0) ">
<use xlink:href="#Layer0_0_FILL"/>
</g>
</svg>
